STARTFONT 2.1
COMMENT Exported by Fony v1.4.7
FONT 16x24x
SIZE 24 96 96
FONTBOUNDINGBOX 16 23 0 -5
STARTPROPERTIES 6
COPYRIGHT "Microsoft & Leon Marrick, 2005.  Freeware. Share and enjoy!"
RESOLUTION_X 96
RESOLUTION_Y 96
FONT_ASCENT 19
FONT_DESCENT 5
DEFAULT_CHAR 31
ENDPROPERTIES
CHARS 256
STARTCHAR 000
ENCODING 0
SWIDTH 1152 0
DWIDTH 16 0
BBX 0 0 0 0
BITMAP
ENDCHAR
STARTCHAR 001
ENCODING 1
SWIDTH 1152 0
DWIDTH 16 0
BBX 16 24 0 -5
BITMAP
FFFF
FFFF
FFFF
FFFF
FFFF
FFFF
FFFF
FFFF
FFFF
FFFF
FFFF
FFFF
FFFF
FFFF
FFFF
FFFF
FFFF
FFFF
FFFF
FFFF
FFFF
FFFF
FFFF
FFFF
ENDCHAR
STARTCHAR 002
ENCODING 2
SWIDTH 1152 0
DWIDTH 16 0
BBX 16 24 0 -5
BITMAP
FFFB
DDEE
FFBF
B7FE
FED7
BBFD
FF6F
EAFD
7FB7
F7FF
FF7A
DDDF
FF7B
6BDF
FFFF
DAEE
FFFB
DDEE
FFBF
B7FE
FED7
BBFD
EF6F
7DFF
ENDCHAR
STARTCHAR 003
ENCODING 3
SWIDTH 1152 0
DWIDTH 16 0
BBX 16 24 0 -5
BITMAP
FDFD
5555
AFAF
5555
BBBB
5555
EBEB
9696
FDFD
5555
AFAF
5555
BBBB
5555
EBEB
9696
FDFD
5555
AFAF
5555
BBBB
5555
EBEB
9696
ENDCHAR
STARTCHAR 004
ENCODING 4
SWIDTH 1152 0
DWIDTH 16 0
BBX 16 24 0 -5
BITMAP
0004
2211
0040
4801
0128
4402
0090
1502
8048
0800
0085
2220
0004
94A0
0000
2511
0004
2211
0040
4801
0128
4402
1090
8200
ENDCHAR
STARTCHAR 005
ENCODING 5
SWIDTH 1152 0
DWIDTH 16 0
BBX 16 24 0 -5
BITMAP
4001
0200
1020
0004
4100
0808
8040
0202
2000
0088
0000
4820
0104
0001
0800
0088
4001
0200
1020
0004
4100
0808
8040
0404
ENDCHAR
STARTCHAR 006
ENCODING 6
SWIDTH 1152 0
DWIDTH 16 0
BBX 15 24 0 -5
BITMAP
0404
0000
0000
1000
0008
0100
0000
4000
0002
0080
0000
1010
0000
0000
4000
0400
0002
0040
0000
0000
0808
0000
0080
8000
ENDCHAR
STARTCHAR 007
ENCODING 7
SWIDTH 1152 0
DWIDTH 16 0
BBX 2 1 7 6
BITMAP
C0
ENDCHAR
STARTCHAR 008
ENCODING 8
SWIDTH 1152 0
DWIDTH 16 0
BBX 3 3 6 5
BITMAP
E0
E0
E0
ENDCHAR
STARTCHAR 009
ENCODING 9
SWIDTH 1152 0
DWIDTH 16 0
BBX 6 7 5 3
BITMAP
78
FC
FC
FC
FC
FC
78
ENDCHAR
STARTCHAR 010
ENCODING 10
SWIDTH 1152 0
DWIDTH 16 0
BBX 10 11 3 1
BITMAP
1E00
7F80
7F80
FFC0
FFC0
FFC0
FFC0
FFC0
7F80
7F80
1E00
ENDCHAR
STARTCHAR 011
ENCODING 11
SWIDTH 1152 0
DWIDTH 16 0
BBX 15 8 1 -2
BITMAP
0F38
3DFC
6AAC
D556
AAAA
D556
AAAA
FFFC
ENDCHAR
STARTCHAR 012
ENCODING 12
SWIDTH 1152 0
DWIDTH 16 0
BBX 16 10 0 1
BITMAP
3FFC
5556
FFFF
5556
2AAC
1558
0AB0
0560
02C0
0180
ENDCHAR
STARTCHAR 013
ENCODING 13
SWIDTH 1152 0
DWIDTH 16 0
BBX 16 24 0 -5
BITMAP
0FF0
3AAC
7556
6AAA
D557
AAAB
D555
AAAB
D555
AAAB
D555
FFFF
FFFF
D555
AAAB
D555
AAAB
D555
AAAB
D555
AAAB
D555
AAAB
FFFF
ENDCHAR
STARTCHAR 014
ENCODING 14
SWIDTH 1152 0
DWIDTH 16 0
BBX 16 24 0 -5
BITMAP
0FF0
300C
4002
4002
8001
8001
8001
8001
8001
8001
8001
8001
8001
8001
8001
8001
8001
8001
8001
8001
8001
8001
8001
FFFF
ENDCHAR
STARTCHAR 015
ENCODING 15
SWIDTH 1152 0
DWIDTH 16 0
BBX 16 24 0 -5
BITMAP
0A50
2004
4002
0000
8001
8001
0000
8001
8001
0000
8001
8001
0000
8001
8001
0000
8001
8001
0000
8001
8001
0000
8001
DA5B
ENDCHAR
STARTCHAR 016
ENCODING 16
SWIDTH 1152 0
DWIDTH 16 0
BBX 12 21 2 -3
BITMAP
8010
6960
3FC0
2740
0B80
1780
0B00
0780
1B80
0700
0B80
1780
0B00
0780
1B80
0700
0B80
1780
2B40
37C0
1F80
ENDCHAR
STARTCHAR 017
ENCODING 17
SWIDTH 1152 0
DWIDTH 16 0
BBX 13 19 1 -2
BITMAP
3200
4C00
0000
0000
0000
00C8
0130
0000
0000
0000
0000
6400
9800
0000
0000
0000
0000
0190
0260
ENDCHAR
STARTCHAR 018
ENCODING 18
SWIDTH 1152 0
DWIDTH 16 0
BBX 13 18 1 -2
BITMAP
1FC0
7570
AAA8
D558
AAA8
D558
AAA8
D558
AAA8
5DD0
3760
0700
0700
0700
0700
0700
0700
0700
ENDCHAR
STARTCHAR 019
ENCODING 19
SWIDTH 1152 0
DWIDTH 16 0
BBX 14 18 1 -3
BITMAP
0140
0140
1500
1420
56A0
4280
0A90
2850
2D50
2548
8CC8
BBF0
2AA8
755C
DEAC
5554
ABAC
5ED8
ENDCHAR
STARTCHAR 020
ENCODING 20
SWIDTH 1152 0
DWIDTH 16 0
BBX 13 17 1 -2
BITMAP
1240
0A80
4010
2020
8008
4010
0000
C018
0000
C018
0000
4018
8000
2020
4010
0A80
1240
ENDCHAR
STARTCHAR 021
ENCODING 21
SWIDTH 1152 0
DWIDTH 16 0
BBX 0 0 0 0
BITMAP
ENDCHAR
STARTCHAR 022
ENCODING 22
SWIDTH 1152 0
DWIDTH 16 0
BBX 0 0 0 0
BITMAP
ENDCHAR
STARTCHAR 023
ENCODING 23
SWIDTH 1152 0
DWIDTH 16 0
BBX 0 0 0 0
BITMAP
ENDCHAR
STARTCHAR 024
ENCODING 24
SWIDTH 1152 0
DWIDTH 16 0
BBX 0 0 0 0
BITMAP
ENDCHAR
STARTCHAR 025
ENCODING 25
SWIDTH 1152 0
DWIDTH 16 0
BBX 0 0 0 0
BITMAP
ENDCHAR
STARTCHAR 026
ENCODING 26
SWIDTH 1152 0
DWIDTH 16 0
BBX 0 0 0 0
BITMAP
ENDCHAR
STARTCHAR 027
ENCODING 27
SWIDTH 1152 0
DWIDTH 16 0
BBX 0 0 0 0
BITMAP
ENDCHAR
STARTCHAR 028
ENCODING 28
SWIDTH 1152 0
DWIDTH 16 0
BBX 0 0 0 0
BITMAP
ENDCHAR
STARTCHAR 029
ENCODING 29
SWIDTH 1152 0
DWIDTH 16 0
BBX 0 0 0 0
BITMAP
ENDCHAR
STARTCHAR 030
ENCODING 30
SWIDTH 1152 0
DWIDTH 16 0
BBX 0 0 0 0
BITMAP
ENDCHAR
STARTCHAR 031
ENCODING 31
SWIDTH 1152 0
DWIDTH 16 0
BBX 0 0 0 0
BITMAP
ENDCHAR
STARTCHAR 032
ENCODING 32
SWIDTH 1152 0
DWIDTH 16 0
BBX 0 0 0 0
BITMAP
ENDCHAR
STARTCHAR 033
ENCODING 33
SWIDTH 1152 0
DWIDTH 16 0
BBX 4 16 6 -1
BITMAP
60
F0
F0
F0
F0
F0
60
60
60
60
60
00
60
F0
F0
60
ENDCHAR
STARTCHAR 034
ENCODING 34
SWIDTH 1152 0
DWIDTH 16 0
BBX 6 5 5 10
BITMAP
CC
CC
CC
CC
CC
ENDCHAR
STARTCHAR 035
ENCODING 35
SWIDTH 1152 0
DWIDTH 16 0
BBX 12 15 2 0
BITMAP
0C60
0C60
0CE0
18C0
FFF0
FFF0
18C0
3180
3180
FFF0
FFF0
3180
7300
6300
6300
ENDCHAR
STARTCHAR 036
ENCODING 36
SWIDTH 1152 0
DWIDTH 16 0
BBX 9 18 3 -2
BITMAP
0800
3E00
7F00
EB80
C980
C800
E800
7C00
1F00
0B80
0980
0980
C980
EB80
7F00
3E00
0800
0800
ENDCHAR
STARTCHAR 037
ENCODING 37
SWIDTH 1152 0
DWIDTH 16 0
BBX 14 15 1 0
BITMAP
3030
7860
CC60
CCC0
CCC0
CD80
7980
3330
0678
06CC
0CCC
0CCC
18CC
1878
3030
ENDCHAR
STARTCHAR 038
ENCODING 38
SWIDTH 1152 0
DWIDTH 16 0
BBX 12 15 2 0
BITMAP
0F00
1F80
30C0
30C0
3180
1B00
1E00
3E00
6730
C3B0
C1E0
C0C0
E1E0
7FB0
3E10
ENDCHAR
STARTCHAR 039
ENCODING 39
SWIDTH 1152 0
DWIDTH 16 0
BBX 4 5 6 10
BITMAP
60
F0
F0
60
C0
ENDCHAR
STARTCHAR 040
ENCODING 40
SWIDTH 1152 0
DWIDTH 16 0
BBX 5 19 6 -4
BITMAP
08
10
30
20
60
60
C0
C0
C0
C0
C0
C0
C0
60
60
20
30
10
08
ENDCHAR
STARTCHAR 041
ENCODING 41
SWIDTH 1152 0
DWIDTH 16 0
BBX 5 19 5 -4
BITMAP
80
40
60
20
30
30
18
18
18
18
18
18
18
30
30
20
60
40
80
ENDCHAR
STARTCHAR 042
ENCODING 42
SWIDTH 1152 0
DWIDTH 16 0
BBX 9 8 3 2
BITMAP
6300
7700
3E00
FF80
FF80
3E00
7700
6300
ENDCHAR
STARTCHAR 043
ENCODING 43
SWIDTH 1152 0
DWIDTH 16 0
BBX 12 12 2 0
BITMAP
0600
0600
0600
0600
0600
FFF0
FFF0
0600
0600
0600
0600
0600
ENDCHAR
STARTCHAR 044
ENCODING 44
SWIDTH 1152 0
DWIDTH 16 0
BBX 4 5 6 -2
BITMAP
60
F0
F0
60
C0
ENDCHAR
STARTCHAR 045
ENCODING 45
SWIDTH 1152 0
DWIDTH 16 0
BBX 12 2 2 5
BITMAP
FFF0
FFF0
ENDCHAR
STARTCHAR 046
ENCODING 46
SWIDTH 1152 0
DWIDTH 16 0
BBX 4 4 6 -1
BITMAP
60
F0
F0
60
ENDCHAR
STARTCHAR 047
ENCODING 47
SWIDTH 1152 0
DWIDTH 16 0
BBX 9 16 3 0
BITMAP
0180
0180
0300
0300
0600
0600
0C00
0C00
1800
1800
3000
3000
6000
6000
C000
C000
ENDCHAR
STARTCHAR 048
ENCODING 48
SWIDTH 1152 0
DWIDTH 16 0
BBX 10 15 3 0
BITMAP
1E00
7F80
6180
C0C0
C0C0
C0C0
C0C0
C0C0
C0C0
C0C0
C0C0
C0C0
6180
7F80
1E00
ENDCHAR
STARTCHAR 049
ENCODING 49
SWIDTH 1152 0
DWIDTH 16 0
BBX 6 15 4 0
BITMAP
0C
0C
3C
7C
CC
0C
0C
0C
0C
0C
0C
0C
0C
0C
0C
ENDCHAR
STARTCHAR 050
ENCODING 50
SWIDTH 1152 0
DWIDTH 16 0
BBX 10 15 3 0
BITMAP
3F00
7F80
E1C0
C0C0
00C0
00C0
0180
0180
0300
0E00
1C00
3000
6000
FFC0
FFC0
ENDCHAR
STARTCHAR 051
ENCODING 51
SWIDTH 1152 0
DWIDTH 16 0
BBX 10 15 3 0
BITMAP
3E00
7F00
E380
C180
0180
0300
0E00
0F80
01C0
00C0
00C0
C0C0
E180
7F80
3E00
ENDCHAR
STARTCHAR 052
ENCODING 52
SWIDTH 1152 0
DWIDTH 16 0
BBX 10 15 3 0
BITMAP
0100
0300
0700
0F00
1B00
1B00
3300
6300
C300
FFC0
FFC0
0300
0300
0300
0300
ENDCHAR
STARTCHAR 053
ENCODING 53
SWIDTH 1152 0
DWIDTH 16 0
BBX 10 15 3 0
BITMAP
3F80
3F80
6000
6000
6000
6F00
FF80
C1C0
00C0
00C0
00C0
C0C0
E180
7F80
3E00
ENDCHAR
STARTCHAR 054
ENCODING 54
SWIDTH 1152 0
DWIDTH 16 0
BBX 10 15 3 0
BITMAP
1F00
3F80
61C0
60C0
C000
CF00
FF80
E1C0
C0C0
C0C0
C0C0
C0C0
6180
3F80
1E00
ENDCHAR
STARTCHAR 055
ENCODING 55
SWIDTH 1152 0
DWIDTH 16 0
BBX 10 15 3 0
BITMAP
FFC0
FFC0
0180
0300
0300
0600
0600
0C00
0C00
1800
1800
1800
3000
3000
3000
ENDCHAR
STARTCHAR 056
ENCODING 56
SWIDTH 1152 0
DWIDTH 16 0
BBX 10 15 3 0
BITMAP
1E00
3F00
6180
6180
6180
6180
3F00
3F00
6180
C0C0
C0C0
C0C0
E1C0
7F80
3F00
ENDCHAR
STARTCHAR 057
ENCODING 57
SWIDTH 1152 0
DWIDTH 16 0
BBX 10 15 3 0
BITMAP
1E00
7F00
6180
C0C0
C0C0
C0C0
C0C0
61C0
7FC0
3CC0
00C0
C180
E180
7F00
3E00
ENDCHAR
STARTCHAR 058
ENCODING 58
SWIDTH 1152 0
DWIDTH 16 0
BBX 4 10 6 -1
BITMAP
60
F0
F0
60
00
00
60
F0
F0
60
ENDCHAR
STARTCHAR 059
ENCODING 59
SWIDTH 1152 0
DWIDTH 16 0
BBX 4 11 6 -2
BITMAP
60
F0
F0
60
00
00
60
F0
F0
60
C0
ENDCHAR
STARTCHAR 060
ENCODING 60
SWIDTH 1152 0
DWIDTH 16 0
BBX 9 10 3 1
BITMAP
0180
0700
1C00
7000
C000
C000
7000
1C00
0700
0180
ENDCHAR
STARTCHAR 061
ENCODING 61
SWIDTH 1152 0
DWIDTH 16 0
BBX 12 6 2 3
BITMAP
FFF0
FFF0
0000
0000
FFF0
FFF0
ENDCHAR
STARTCHAR 062
ENCODING 62
SWIDTH 1152 0
DWIDTH 16 0
BBX 9 10 3 1
BITMAP
C000
7000
1C00
0700
0180
0180
0700
1C00
7000
C000
ENDCHAR
STARTCHAR 063
ENCODING 63
SWIDTH 1152 0
DWIDTH 16 0
BBX 10 16 3 -1
BITMAP
3F00
7F80
E1C0
C0C0
00C0
01C0
0380
0700
0E00
0C00
0C00
0000
0C00
1E00
1E00
0C00
ENDCHAR
STARTCHAR 064
ENCODING 64
SWIDTH 1152 0
DWIDTH 16 0
BBX 15 16 0 -1
BITMAP
03E0
0C18
1004
23DA
47FA
4E72
8C32
9832
9822
9866
9CEC
4FF8
4770
2002
180C
07F0
ENDCHAR
STARTCHAR 065
ENCODING 65
SWIDTH 1152 0
DWIDTH 16 0
BBX 13 15 1 0
BITMAP
0700
0700
0D80
0D80
0D80
18C0
18C0
18C0
3FE0
3FE0
6030
6030
6030
C018
C018
ENDCHAR
STARTCHAR 066
ENCODING 66
SWIDTH 1152 0
DWIDTH 16 0
BBX 11 15 2 0
BITMAP
FF00
FF80
C1C0
C0C0
C0C0
C1C0
FF80
FF80
C0C0
C060
C060
C060
C0E0
FFC0
FF80
ENDCHAR
STARTCHAR 067
ENCODING 67
SWIDTH 1152 0
DWIDTH 16 0
BBX 13 15 1 0
BITMAP
0FC0
3FE0
3870
6038
E018
C000
C000
C000
C000
C000
E018
6030
7870
3FE0
0FC0
ENDCHAR
STARTCHAR 068
ENCODING 68
SWIDTH 1152 0
DWIDTH 16 0
BBX 12 15 2 0
BITMAP
FF00
FFC0
C0E0
C060
C030
C030
C030
C030
C030
C030
C030
C060
C0E0
FFC0
FF00
ENDCHAR
STARTCHAR 069
ENCODING 69
SWIDTH 1152 0
DWIDTH 16 0
BBX 11 15 3 0
BITMAP
FFE0
FFE0
C000
C000
C000
C000
FFC0
FFC0
C000
C000
C000
C000
C000
FFE0
FFE0
ENDCHAR
STARTCHAR 070
ENCODING 70
SWIDTH 1152 0
DWIDTH 16 0
BBX 10 15 3 0
BITMAP
FFC0
FFC0
C000
C000
C000
C000
FF80
FF80
C000
C000
C000
C000
C000
C000
C000
ENDCHAR
STARTCHAR 071
ENCODING 71
SWIDTH 1152 0
DWIDTH 16 0
BBX 13 15 1 0
BITMAP
0FC0
1FE0
3870
6038
6010
C000
C000
C1F8
C1F8
C018
6018
6018
3878
1FF0
07C0
ENDCHAR
STARTCHAR 072
ENCODING 72
SWIDTH 1152 0
DWIDTH 16 0
BBX 12 15 2 0
BITMAP
C030
C030
C030
C030
C030
C030
FFF0
FFF0
C030
C030
C030
C030
C030
C030
C030
ENDCHAR
STARTCHAR 073
ENCODING 73
SWIDTH 1152 0
DWIDTH 16 0
BBX 6 15 5 0
BITMAP
FC
FC
30
30
30
30
30
30
30
30
30
30
30
FC
FC
ENDCHAR
STARTCHAR 074
ENCODING 74
SWIDTH 1152 0
DWIDTH 16 0
BBX 10 15 3 0
BITMAP
00C0
00C0
00C0
00C0
00C0
00C0
00C0
00C0
00C0
00C0
00C0
C0C0
E1C0
7F80
3F00
ENDCHAR
STARTCHAR 075
ENCODING 75
SWIDTH 1152 0
DWIDTH 16 0
BBX 12 15 2 0
BITMAP
C0E0
C1C0
C380
C700
CE00
DC00
DC00
FC00
EE00
C700
C380
C180
C1C0
C0E0
C070
ENDCHAR
STARTCHAR 076
ENCODING 76
SWIDTH 1152 0
DWIDTH 16 0
BBX 10 15 3 0
BITMAP
C000
C000
C000
C000
C000
C000
C000
C000
C000
C000
C000
C000
C000
FFC0
FFC0
ENDCHAR
STARTCHAR 077
ENCODING 77
SWIDTH 1152 0
DWIDTH 16 0
BBX 14 15 1 0
BITMAP
E01C
F03C
F03C
D02C
D86C
D86C
C84C
CCCC
CCCC
C48C
C78C
C78C
C30C
C30C
C30C
ENDCHAR
STARTCHAR 078
ENCODING 78
SWIDTH 1152 0
DWIDTH 16 0
BBX 12 15 2 0
BITMAP
C030
E030
F030
F030
D830
CC30
CC30
C630
C330
C330
C1B0
C0F0
C0F0
C070
C030
ENDCHAR
STARTCHAR 079
ENCODING 79
SWIDTH 1152 0
DWIDTH 16 0
BBX 14 15 1 0
BITMAP
0FC0
1FE0
3870
6018
E01C
C00C
C00C
C00C
C00C
C00C
E01C
6018
3870
1FE0
0FC0
ENDCHAR
STARTCHAR 080
ENCODING 80
SWIDTH 1152 0
DWIDTH 16 0
BBX 11 15 2 0
BITMAP
FF80
FFC0
C0E0
C060
C060
C060
C0E0
FFC0
FF80
C000
C000
C000
C000
C000
C000
ENDCHAR
STARTCHAR 081
ENCODING 81
SWIDTH 1152 0
DWIDTH 16 0
BBX 14 16 1 -1
BITMAP
0FC0
1FE0
3870
6018
E01C
C00C
C00C
C00C
C00C
C00C
E018
61D8
3870
1FF8
0FDC
0004
ENDCHAR
STARTCHAR 082
ENCODING 82
SWIDTH 1152 0
DWIDTH 16 0
BBX 12 15 2 0
BITMAP
FF80
FFC0
C0E0
C060
C060
C0E0
FFC0
FF80
C300
C380
C180
C1C0
C0E0
C060
C070
ENDCHAR
STARTCHAR 083
ENCODING 83
SWIDTH 1152 0
DWIDTH 16 0
BBX 12 15 2 0
BITMAP
0F80
3FE0
7070
6030
6000
7000
3F00
0FC0
00E0
0030
C030
E030
7070
3FE0
1F80
ENDCHAR
STARTCHAR 084
ENCODING 84
SWIDTH 1152 0
DWIDTH 16 0
BBX 12 15 2 0
BITMAP
FFF0
FFF0
0600
0600
0600
0600
0600
0600
0600
0600
0600
0600
0600
0600
0600
ENDCHAR
STARTCHAR 085
ENCODING 85
SWIDTH 1152 0
DWIDTH 16 0
BBX 12 15 2 0
BITMAP
C030
C030
C030
C030
C030
C030
C030
C030
C030
C030
C030
E070
70E0
3FC0
1F80
ENDCHAR
STARTCHAR 086
ENCODING 86
SWIDTH 1152 0
DWIDTH 16 0
BBX 13 15 1 0
BITMAP
C018
E038
6030
6030
7070
3060
3060
38E0
18C0
18C0
1DC0
0D80
0D80
0F80
0700
ENDCHAR
STARTCHAR 087
ENCODING 87
SWIDTH 1152 0
DWIDTH 16 0
BBX 14 15 1 0
BITMAP
C30C
C30C
C30C
C78C
C78C
C48C
CCCC
CCCC
C84C
D86C
D86C
D02C
7038
7038
6018
ENDCHAR
STARTCHAR 088
ENCODING 88
SWIDTH 1152 0
DWIDTH 16 0
BBX 14 15 1 0
BITMAP
7038
3870
1860
0CC0
0CC0
0780
0300
0780
0780
0DC0
1CE0
1860
3030
7038
E01C
ENDCHAR
STARTCHAR 089
ENCODING 89
SWIDTH 1152 0
DWIDTH 16 0
BBX 14 15 1 0
BITMAP
E01C
6018
3030
3870
1CE0
0CC0
0780
0780
0300
0300
0300
0300
0300
0300
0300
ENDCHAR
STARTCHAR 090
ENCODING 90
SWIDTH 1152 0
DWIDTH 16 0
BBX 12 15 2 0
BITMAP
FFF0
FFF0
0060
00C0
0180
0180
0300
0600
0C00
1800
1800
3000
6000
FFF0
FFF0
ENDCHAR
STARTCHAR 091
ENCODING 91
SWIDTH 1152 0
DWIDTH 16 0
BBX 6 18 5 -3
BITMAP
FC
FC
C0
C0
C0
C0
C0
C0
C0
C0
C0
C0
C0
C0
C0
C0
FC
FC
ENDCHAR
STARTCHAR 092
ENCODING 92
SWIDTH 1152 0
DWIDTH 16 0
BBX 9 16 3 0
BITMAP
C000
C000
6000
6000
3000
3000
1800
1800
0C00
0C00
0600
0600
0300
0300
0180
0180
ENDCHAR
STARTCHAR 093
ENCODING 93
SWIDTH 1152 0
DWIDTH 16 0
BBX 6 18 5 -3
BITMAP
FC
FC
0C
0C
0C
0C
0C
0C
0C
0C
0C
0C
0C
0C
0C
0C
FC
FC
ENDCHAR
STARTCHAR 094
ENCODING 94
SWIDTH 1152 0
DWIDTH 16 0
BBX 10 5 3 6
BITMAP
0C00
1E00
3300
6180
C0C0
ENDCHAR
STARTCHAR 095
ENCODING 95
SWIDTH 1152 0
DWIDTH 16 0
BBX 16 2 0 -4
BITMAP
FFFF
FFFF
ENDCHAR
STARTCHAR 096
ENCODING 96
SWIDTH 1152 0
DWIDTH 16 0
BBX 4 5 6 10
BITMAP
60
F0
F0
60
30
ENDCHAR
STARTCHAR 097
ENCODING 97
SWIDTH 1152 0
DWIDTH 16 0
BBX 10 10 3 0
BITMAP
3F00
FF80
C180
0380
3F80
FD80
C180
C380
FF80
7CC0
ENDCHAR
STARTCHAR 098
ENCODING 98
SWIDTH 1152 0
DWIDTH 16 0
BBX 10 15 3 0
BITMAP
C000
C000
C000
C000
C000
DF00
FF80
E1C0
C0C0
C0C0
C0C0
C0C0
E1C0
FF80
DF00
ENDCHAR
STARTCHAR 099
ENCODING 99
SWIDTH 1152 0
DWIDTH 16 0
BBX 10 10 3 0
BITMAP
3F00
7F80
E0C0
C000
C000
C000
C000
E0C0
7F80
3F00
ENDCHAR
STARTCHAR 100
ENCODING 100
SWIDTH 1152 0
DWIDTH 16 0
BBX 10 15 3 0
BITMAP
00C0
00C0
00C0
00C0
00C0
3EC0
7FC0
E1C0
C0C0
C0C0
C0C0
C0C0
E1C0
7FC0
3EC0
ENDCHAR
STARTCHAR 101
ENCODING 101
SWIDTH 1152 0
DWIDTH 16 0
BBX 10 10 3 0
BITMAP
3F00
7F80
E1C0
C0C0
FFC0
FFC0
C000
E000
7F80
3F00
ENDCHAR
STARTCHAR 102
ENCODING 102
SWIDTH 1152 0
DWIDTH 16 0
BBX 8 15 3 0
BITMAP
1E
3F
30
30
30
30
FE
FE
30
30
30
30
30
30
30
ENDCHAR
STARTCHAR 103
ENCODING 103
SWIDTH 1152 0
DWIDTH 16 0
BBX 10 14 3 -4
BITMAP
3EC0
7FC0
E1C0
C0C0
C0C0
C0C0
C0C0
E1C0
7FC0
3EC0
00C0
C1C0
FF80
7F00
ENDCHAR
STARTCHAR 104
ENCODING 104
SWIDTH 1152 0
DWIDTH 16 0
BBX 10 15 3 0
BITMAP
C000
C000
C000
C000
C000
DF00
FF80
E1C0
C0C0
C0C0
C0C0
C0C0
C0C0
C0C0
C0C0
ENDCHAR
STARTCHAR 105
ENCODING 105
SWIDTH 1152 0
DWIDTH 16 0
BBX 4 14 6 0
BITMAP
60
60
00
00
E0
E0
60
60
60
60
60
60
F0
F0
ENDCHAR
STARTCHAR 106
ENCODING 106
SWIDTH 1152 0
DWIDTH 16 0
BBX 9 17 3 -2
BITMAP
0180
0180
0000
0000
0380
0380
0180
0180
0180
0180
0180
0180
0180
8180
C380
FF80
7F00
ENDCHAR
STARTCHAR 107
ENCODING 107
SWIDTH 1152 0
DWIDTH 16 0
BBX 9 15 3 0
BITMAP
C000
C000
C000
C000
C380
C700
CE00
DC00
F800
FC00
CC00
C600
C700
C300
C380
ENDCHAR
STARTCHAR 108
ENCODING 108
SWIDTH 1152 0
DWIDTH 16 0
BBX 4 15 6 0
BITMAP
E0
E0
60
60
60
60
60
60
60
60
60
60
60
F0
F0
ENDCHAR
STARTCHAR 109
ENCODING 109
SWIDTH 1152 0
DWIDTH 16 0
BBX 12 10 2 0
BITMAP
D9C0
FFE0
EF70
C630
C630
C630
C630
C630
C630
C630
ENDCHAR
STARTCHAR 110
ENCODING 110
SWIDTH 1152 0
DWIDTH 16 0
BBX 10 10 3 0
BITMAP
DF00
FF80
E1C0
C0C0
C0C0
C0C0
C0C0
C0C0
C0C0
C0C0
ENDCHAR
STARTCHAR 111
ENCODING 111
SWIDTH 1152 0
DWIDTH 16 0
BBX 10 10 3 0
BITMAP
3F00
7F80
E1C0
C0C0
C0C0
C0C0
C0C0
E1C0
7F80
3F00
ENDCHAR
STARTCHAR 112
ENCODING 112
SWIDTH 1152 0
DWIDTH 16 0
BBX 10 14 3 -4
BITMAP
DF00
FF80
E1C0
C0C0
C0C0
C0C0
C0C0
E1C0
FF80
DF00
C000
C000
C000
C000
ENDCHAR
STARTCHAR 113
ENCODING 113
SWIDTH 1152 0
DWIDTH 16 0
BBX 10 14 3 -4
BITMAP
3EC0
7FC0
E1C0
C0C0
C0C0
C0C0
C0C0
E1C0
7FC0
3EC0
00C0
00C0
00C0
00C0
ENDCHAR
STARTCHAR 114
ENCODING 114
SWIDTH 1152 0
DWIDTH 16 0
BBX 10 10 3 0
BITMAP
DF80
FFC0
E0C0
C000
C000
C000
C000
C000
C000
C000
ENDCHAR
STARTCHAR 115
ENCODING 115
SWIDTH 1152 0
DWIDTH 16 0
BBX 10 10 3 0
BITMAP
3F00
7F80
C0C0
C000
7E00
1F80
00C0
C0C0
7F80
3F00
ENDCHAR
STARTCHAR 116
ENCODING 116
SWIDTH 1152 0
DWIDTH 16 0
BBX 7 15 4 0
BITMAP
30
30
30
30
FE
FE
30
30
30
30
30
30
30
3C
1C
ENDCHAR
STARTCHAR 117
ENCODING 117
SWIDTH 1152 0
DWIDTH 16 0
BBX 10 10 3 0
BITMAP
C0C0
C0C0
C0C0
C0C0
C0C0
C0C0
C0C0
E1C0
7FC0
3EC0
ENDCHAR
STARTCHAR 118
ENCODING 118
SWIDTH 1152 0
DWIDTH 16 0
BBX 12 10 2 0
BITMAP
C030
C030
6060
6060
30C0
39C0
1980
0F00
0F00
0600
ENDCHAR
STARTCHAR 119
ENCODING 119
SWIDTH 1152 0
DWIDTH 16 0
BBX 12 10 2 0
BITMAP
C630
C630
C630
C630
6660
6F60
2940
39C0
39C0
30C0
ENDCHAR
STARTCHAR 120
ENCODING 120
SWIDTH 1152 0
DWIDTH 16 0
BBX 10 10 3 0
BITMAP
E1C0
6180
3300
3300
1E00
1E00
3300
3300
6180
E1C0
ENDCHAR
STARTCHAR 121
ENCODING 121
SWIDTH 1152 0
DWIDTH 16 0
BBX 10 14 3 -4
BITMAP
C0C0
C0C0
C0C0
C0C0
C0C0
C0C0
C0C0
E1C0
7FC0
3EC0
00C0
C1C0
FF80
7F00
ENDCHAR
STARTCHAR 122
ENCODING 122
SWIDTH 1152 0
DWIDTH 16 0
BBX 10 10 3 0
BITMAP
FFC0
FFC0
0380
0700
0E00
1C00
3800
7000
FFC0
FFC0
ENDCHAR
STARTCHAR 123
ENCODING 123
SWIDTH 1152 0
DWIDTH 16 0
BBX 7 19 4 -3
BITMAP
0E
18
18
18
18
18
18
18
30
E0
30
18
18
18
18
18
18
18
0E
ENDCHAR
STARTCHAR 124
ENCODING 124
SWIDTH 1152 0
DWIDTH 16 0
BBX 2 19 7 -3
BITMAP
C0
C0
C0
C0
C0
C0
C0
C0
C0
C0
C0
C0
C0
C0
C0
C0
C0
C0
C0
ENDCHAR
STARTCHAR 125
ENCODING 125
SWIDTH 1152 0
DWIDTH 16 0
BBX 7 19 5 -3
BITMAP
E0
30
30
30
30
30
30
30
18
0E
18
30
30
30
30
30
30
30
E0
ENDCHAR
STARTCHAR 126
ENCODING 126
SWIDTH 1152 0
DWIDTH 16 0
BBX 12 4 2 6
BITMAP
3830
7E70
E7E0
C1C0
ENDCHAR
STARTCHAR 127
ENCODING 127
SWIDTH 1152 0
DWIDTH 16 0
BBX 16 24 0 -5
BITMAP
5555
AAAA
5555
AAAA
5555
AAAA
5555
AAAA
5555
AAAA
5555
AAAA
5555
AAAA
5555
AAAA
5555
AAAA
5555
AAAA
5555
AAAA
5555
AAAA
ENDCHAR
STARTCHAR 128
ENCODING 128
SWIDTH 1152 0
DWIDTH 16 0
BBX 0 0 0 0
BITMAP
ENDCHAR
STARTCHAR 129
ENCODING 129
SWIDTH 1152 0
DWIDTH 16 0
BBX 0 0 0 0
BITMAP
ENDCHAR
STARTCHAR 130
ENCODING 130
SWIDTH 1152 0
DWIDTH 16 0
BBX 0 0 0 0
BITMAP
ENDCHAR
STARTCHAR 131
ENCODING 131
SWIDTH 1152 0
DWIDTH 16 0
BBX 0 0 0 0
BITMAP
ENDCHAR
STARTCHAR 132
ENCODING 132
SWIDTH 1152 0
DWIDTH 16 0
BBX 0 0 0 0
BITMAP
ENDCHAR
STARTCHAR 133
ENCODING 133
SWIDTH 1152 0
DWIDTH 16 0
BBX 0 0 0 0
BITMAP
ENDCHAR
STARTCHAR 134
ENCODING 134
SWIDTH 1152 0
DWIDTH 16 0
BBX 0 0 0 0
BITMAP
ENDCHAR
STARTCHAR 135
ENCODING 135
SWIDTH 1152 0
DWIDTH 16 0
BBX 0 0 0 0
BITMAP
ENDCHAR
STARTCHAR 136
ENCODING 136
SWIDTH 1152 0
DWIDTH 16 0
BBX 0 0 0 0
BITMAP
ENDCHAR
STARTCHAR 137
ENCODING 137
SWIDTH 1152 0
DWIDTH 16 0
BBX 0 0 0 0
BITMAP
ENDCHAR
STARTCHAR 138
ENCODING 138
SWIDTH 1152 0
DWIDTH 16 0
BBX 0 0 0 0
BITMAP
ENDCHAR
STARTCHAR 139
ENCODING 139
SWIDTH 1152 0
DWIDTH 16 0
BBX 0 0 0 0
BITMAP
ENDCHAR
STARTCHAR 140
ENCODING 140
SWIDTH 1152 0
DWIDTH 16 0
BBX 0 0 0 0
BITMAP
ENDCHAR
STARTCHAR 141
ENCODING 141
SWIDTH 1152 0
DWIDTH 16 0
BBX 0 0 0 0
BITMAP
ENDCHAR
STARTCHAR 142
ENCODING 142
SWIDTH 1152 0
DWIDTH 16 0
BBX 0 0 0 0
BITMAP
ENDCHAR
STARTCHAR 143
ENCODING 143
SWIDTH 1152 0
DWIDTH 16 0
BBX 0 0 0 0
BITMAP
ENDCHAR
STARTCHAR 144
ENCODING 144
SWIDTH 1152 0
DWIDTH 16 0
BBX 0 0 0 0
BITMAP
ENDCHAR
STARTCHAR 145
ENCODING 145
SWIDTH 1152 0
DWIDTH 16 0
BBX 0 0 0 0
BITMAP
ENDCHAR
STARTCHAR 146
ENCODING 146
SWIDTH 1152 0
DWIDTH 16 0
BBX 0 0 0 0
BITMAP
ENDCHAR
STARTCHAR 147
ENCODING 147
SWIDTH 1152 0
DWIDTH 16 0
BBX 0 0 0 0
BITMAP
ENDCHAR
STARTCHAR 148
ENCODING 148
SWIDTH 1152 0
DWIDTH 16 0
BBX 0 0 0 0
BITMAP
ENDCHAR
STARTCHAR 149
ENCODING 149
SWIDTH 1152 0
DWIDTH 16 0
BBX 0 0 0 0
BITMAP
ENDCHAR
STARTCHAR 150
ENCODING 150
SWIDTH 1152 0
DWIDTH 16 0
BBX 0 0 0 0
BITMAP
ENDCHAR
STARTCHAR 151
ENCODING 151
SWIDTH 1152 0
DWIDTH 16 0
BBX 0 0 0 0
BITMAP
ENDCHAR
STARTCHAR 152
ENCODING 152
SWIDTH 1152 0
DWIDTH 16 0
BBX 0 0 0 0
BITMAP
ENDCHAR
STARTCHAR 153
ENCODING 153
SWIDTH 1152 0
DWIDTH 16 0
BBX 0 0 0 0
BITMAP
ENDCHAR
STARTCHAR 154
ENCODING 154
SWIDTH 1152 0
DWIDTH 16 0
BBX 0 0 0 0
BITMAP
ENDCHAR
STARTCHAR 155
ENCODING 155
SWIDTH 1152 0
DWIDTH 16 0
BBX 0 0 0 0
BITMAP
ENDCHAR
STARTCHAR 156
ENCODING 156
SWIDTH 1152 0
DWIDTH 16 0
BBX 0 0 0 0
BITMAP
ENDCHAR
STARTCHAR 157
ENCODING 157
SWIDTH 1152 0
DWIDTH 16 0
BBX 0 0 0 0
BITMAP
ENDCHAR
STARTCHAR 158
ENCODING 158
SWIDTH 1152 0
DWIDTH 16 0
BBX 0 0 0 0
BITMAP
ENDCHAR
STARTCHAR 159
ENCODING 159
SWIDTH 1152 0
DWIDTH 16 0
BBX 0 0 0 0
BITMAP
ENDCHAR
STARTCHAR 160
ENCODING 160
SWIDTH 1152 0
DWIDTH 16 0
BBX 0 0 0 0
BITMAP
ENDCHAR
STARTCHAR 161
ENCODING 161
SWIDTH 1152 0
DWIDTH 16 0
BBX 4 16 6 -1
BITMAP
60
F0
F0
60
00
60
60
60
60
60
F0
F0
F0
F0
F0
60
ENDCHAR
STARTCHAR 162
ENCODING 162
SWIDTH 1152 0
DWIDTH 16 0
BBX 11 15 2 0
BITMAP
07C0
0FE0
1C20
3000
3000
6000
FFC0
6000
FF80
6000
3000
3000
1C20
0FE0
07C0
ENDCHAR
STARTCHAR 163
ENCODING 163
SWIDTH 1152 0
DWIDTH 16 0
BBX 11 15 2 0
BITMAP
0F80
1FC0
38E0
3060
3000
3000
3000
FF00
FF00
1800
1800
3000
7E40
FFE0
83C0
ENDCHAR
STARTCHAR 164
ENCODING 164
SWIDTH 1152 0
DWIDTH 16 0
BBX 10 10 3 1
BITMAP
0C00
2D00
5280
2D00
DEC0
DEC0
2D00
5280
2D00
0C00
ENDCHAR
STARTCHAR 165
ENCODING 165
SWIDTH 1152 0
DWIDTH 16 0
BBX 12 14 2 0
BITMAP
C030
E070
70E0
39C0
1F80
0F00
7FE0
7FE0
0600
0600
7FE0
7FE0
0600
0600
ENDCHAR
STARTCHAR 166
ENCODING 166
SWIDTH 1152 0
DWIDTH 16 0
BBX 2 17 7 -2
BITMAP
C0
C0
C0
C0
C0
C0
C0
00
00
00
C0
C0
C0
C0
C0
C0
C0
ENDCHAR
STARTCHAR 167
ENCODING 167
SWIDTH 1152 0
DWIDTH 16 0
BBX 10 14 3 0
BITMAP
3F80
7FC0
E040
C000
FF00
BF80
80C0
C040
7F40
3FC0
00C0
81C0
FF80
7F00
ENDCHAR
STARTCHAR 168
ENCODING 168
SWIDTH 1152 0
DWIDTH 16 0
BBX 5 18 5 -2
BITMAP
20
20
20
20
30
30
30
38
B8
E8
E0
60
60
60
20
20
20
20
ENDCHAR
STARTCHAR 169
ENCODING 169
SWIDTH 1152 0
DWIDTH 16 0
BBX 14 5 1 3
BITMAP
0300
1E00
FFFC
01E0
0300
ENDCHAR
STARTCHAR 170
ENCODING 170
SWIDTH 1152 0
DWIDTH 16 0
BBX 12 16 2 -2
BITMAP
0010
0020
0040
00C0
0180
0300
0700
1E00
0780
0E00
0C00
1800
3000
2000
4000
8000
ENDCHAR
STARTCHAR 171
ENCODING 171
SWIDTH 1152 0
DWIDTH 16 0
BBX 12 16 2 -2
BITMAP
8000
4000
2000
3000
1800
0C00
0E00
0780
1E00
0700
0300
0180
00C0
0040
0020
0010
ENDCHAR
STARTCHAR 172
ENCODING 172
SWIDTH 1152 0
DWIDTH 16 0
BBX 13 16 1 -2
BITMAP
0500
2AA0
5750
3AE0
5550
AFA8
7770
AFA8
AFA8
7770
AFA8
5550
3AE0
5750
2AA0
0500
ENDCHAR
STARTCHAR 173
ENCODING 173
SWIDTH 1152 0
DWIDTH 16 0
BBX 15 17 0 -2
BITMAP
0840
0486
6488
1448
1250
0E50
C2A0
3FC0
03E6
3FD8
C7A0
1CF8
25A4
C924
12A2
1210
0408
ENDCHAR
STARTCHAR 174
ENCODING 174
SWIDTH 1152 0
DWIDTH 16 0
BBX 13 16 1 -1
BITMAP
8008
4510
6AB0
3560
3AE0
5FD0
AFA8
5FD0
5FD0
AFA8
5FD0
3AE0
3560
6AB0
4510
8008
ENDCHAR
STARTCHAR 175
ENCODING 175
SWIDTH 1152 0
DWIDTH 16 0
BBX 0 0 0 0
BITMAP
ENDCHAR
STARTCHAR 176
ENCODING 176
SWIDTH 1152 0
DWIDTH 16 0
BBX 0 0 0 0
BITMAP
ENDCHAR
STARTCHAR 177
ENCODING 177
SWIDTH 1152 0
DWIDTH 16 0
BBX 0 0 0 0
BITMAP
ENDCHAR
STARTCHAR 178
ENCODING 178
SWIDTH 1152 0
DWIDTH 16 0
BBX 0 0 0 0
BITMAP
ENDCHAR
STARTCHAR 179
ENCODING 179
SWIDTH 1152 0
DWIDTH 16 0
BBX 0 0 0 0
BITMAP
ENDCHAR
STARTCHAR 180
ENCODING 180
SWIDTH 1152 0
DWIDTH 16 0
BBX 0 0 0 0
BITMAP
ENDCHAR
STARTCHAR 181
ENCODING 181
SWIDTH 1152 0
DWIDTH 16 0
BBX 0 0 0 0
BITMAP
ENDCHAR
STARTCHAR 182
ENCODING 182
SWIDTH 1152 0
DWIDTH 16 0
BBX 0 0 0 0
BITMAP
ENDCHAR
STARTCHAR 183
ENCODING 183
SWIDTH 1152 0
DWIDTH 16 0
BBX 0 0 0 0
BITMAP
ENDCHAR
STARTCHAR 184
ENCODING 184
SWIDTH 1152 0
DWIDTH 16 0
BBX 0 0 0 0
BITMAP
ENDCHAR
STARTCHAR 185
ENCODING 185
SWIDTH 1152 0
DWIDTH 16 0
BBX 0 0 0 0
BITMAP
ENDCHAR
STARTCHAR 186
ENCODING 186
SWIDTH 1152 0
DWIDTH 16 0
BBX 0 0 0 0
BITMAP
ENDCHAR
STARTCHAR 187
ENCODING 187
SWIDTH 1152 0
DWIDTH 16 0
BBX 0 0 0 0
BITMAP
ENDCHAR
STARTCHAR 188
ENCODING 188
SWIDTH 1152 0
DWIDTH 16 0
BBX 0 0 0 0
BITMAP
ENDCHAR
STARTCHAR 189
ENCODING 189
SWIDTH 1152 0
DWIDTH 16 0
BBX 0 0 0 0
BITMAP
ENDCHAR
STARTCHAR 190
ENCODING 190
SWIDTH 1152 0
DWIDTH 16 0
BBX 0 0 0 0
BITMAP
ENDCHAR
STARTCHAR 191
ENCODING 191
SWIDTH 1152 0
DWIDTH 16 0
BBX 10 16 3 0
BITMAP
0C00
1E00
1E00
0C00
0000
0C00
0C00
1C00
3800
7000
E000
C000
C0C0
E1C0
7F80
3F00
ENDCHAR
STARTCHAR 192
ENCODING 192
SWIDTH 1152 0
DWIDTH 16 0
BBX 13 19 1 0
BITMAP
0600
0300
0100
0000
0700
0700
0D80
0D80
0D80
18C0
18C0
18C0
3FE0
3FE0
6030
6030
6030
C018
C018
ENDCHAR
STARTCHAR 193
ENCODING 193
SWIDTH 1152 0
DWIDTH 16 0
BBX 13 19 1 0
BITMAP
0300
0600
0400
0000
0700
0700
0D80
0D80
0D80
18C0
18C0
18C0
3FE0
3FE0
6030
6030
6030
C018
C018
ENDCHAR
STARTCHAR 194
ENCODING 194
SWIDTH 1152 0
DWIDTH 16 0
BBX 13 19 1 0
BITMAP
0300
0780
0CC0
0000
0700
0700
0D80
0D80
0D80
18C0
18C0
18C0
3FE0
3FE0
6030
6030
6030
C018
C018
ENDCHAR
STARTCHAR 195
ENCODING 195
SWIDTH 1152 0
DWIDTH 16 0
BBX 13 19 1 0
BITMAP
0EC0
1FC0
1B80
0000
0700
0700
0D80
0D80
0D80
18C0
18C0
18C0
3FE0
3FE0
6030
6030
6030
C018
C018
ENDCHAR
STARTCHAR 196
ENCODING 196
SWIDTH 1152 0
DWIDTH 16 0
BBX 14 18 1 0
BITMAP
18C0
18C0
0000
0700
0700
0D80
0D80
0D80
18C0
18C0
18C0
3FE0
3FE0
6030
6030
6030
C01C
C01C
ENDCHAR
STARTCHAR 197
ENCODING 197
SWIDTH 1152 0
DWIDTH 16 0
BBX 14 19 1 0
BITMAP
0700
0880
0880
0880
0700
0700
0D80
0D80
0D80
18C0
18C0
18C0
3FE0
3FE0
6030
6030
6030
C01C
C01C
ENDCHAR
STARTCHAR 198
ENCODING 198
SWIDTH 1152 0
DWIDTH 16 0
BBX 15 15 0 0
BITMAP
07FE
07FE
0D80
0D80
1980
1980
19FC
31FC
3180
7F80
7F80
6180
C180
C1FE
C1FE
ENDCHAR
STARTCHAR 199
ENCODING 199
SWIDTH 1152 0
DWIDTH 16 0
BBX 13 19 1 -4
BITMAP
0FC0
3FE0
3870
6038
E018
C000
C000
C000
C000
C000
E018
6030
7870
3FE0
0FC0
0200
0300
0180
0F00
ENDCHAR
STARTCHAR 200
ENCODING 200
SWIDTH 1152 0
DWIDTH 16 0
BBX 11 19 3 0
BITMAP
0C00
0600
0200
0000
FFE0
FFE0
C000
C000
C000
C000
FFC0
FFC0
C000
C000
C000
C000
C000
FFE0
FFE0
ENDCHAR
STARTCHAR 201
ENCODING 201
SWIDTH 1152 0
DWIDTH 16 0
BBX 11 19 3 0
BITMAP
0600
0C00
0800
0000
FFE0
FFE0
C000
C000
C000
C000
FFC0
FFC0
C000
C000
C000
C000
C000
FFE0
FFE0
ENDCHAR
STARTCHAR 202
ENCODING 202
SWIDTH 1152 0
DWIDTH 16 0
BBX 11 19 3 0
BITMAP
0600
0F00
1980
0000
FFE0
FFE0
C000
C000
C000
C000
FFC0
FFC0
C000
C000
C000
C000
C000
FFE0
FFE0
ENDCHAR
STARTCHAR 203
ENCODING 203
SWIDTH 1152 0
DWIDTH 16 0
BBX 11 18 3 0
BITMAP
1980
1980
0000
FFE0
FFE0
C000
C000
C000
C000
FFC0
FFC0
C000
C000
C000
C000
C000
FFE0
FFE0
ENDCHAR
STARTCHAR 204
ENCODING 204
SWIDTH 1152 0
DWIDTH 16 0
BBX 6 19 5 0
BITMAP
60
30
10
00
FC
FC
30
30
30
30
30
30
30
30
30
30
30
FC
FC
ENDCHAR
STARTCHAR 205
ENCODING 205
SWIDTH 1152 0
DWIDTH 16 0
BBX 6 19 5 0
BITMAP
18
30
20
00
FC
FC
30
30
30
30
30
30
30
30
30
30
30
FC
FC
ENDCHAR
STARTCHAR 206
ENCODING 206
SWIDTH 1152 0
DWIDTH 16 0
BBX 6 19 5 0
BITMAP
30
78
CC
00
FC
FC
30
30
30
30
30
30
30
30
30
30
30
FC
FC
ENDCHAR
STARTCHAR 207
ENCODING 207
SWIDTH 1152 0
DWIDTH 16 0
BBX 6 18 5 0
BITMAP
CC
CC
00
FC
FC
30
30
30
30
30
30
30
30
30
30
30
FC
FC
ENDCHAR
STARTCHAR 208
ENCODING 208
SWIDTH 1152 0
DWIDTH 16 0
BBX 14 15 0 0
BITMAP
3FC0
3FF0
3038
3018
300C
300C
FF0C
FF0C
300C
300C
300C
3018
3038
3FF0
3FC0
ENDCHAR
STARTCHAR 209
ENCODING 209
SWIDTH 1152 0
DWIDTH 16 0
BBX 12 19 2 0
BITMAP
0EC0
1FC0
1B80
0000
C030
E030
F030
F030
D830
CC30
CC30
C630
C330
C330
C1B0
C0F0
C0F0
C070
C030
ENDCHAR
STARTCHAR 210
ENCODING 210
SWIDTH 1152 0
DWIDTH 16 0
BBX 14 19 1 0
BITMAP
0600
0300
0100
0000
0FC0
1FE0
3870
6018
E01C
C00C
C00C
C00C
C00C
C00C
E01C
6018
3870
1FE0
0FC0
ENDCHAR
STARTCHAR 211
ENCODING 211
SWIDTH 1152 0
DWIDTH 16 0
BBX 14 19 1 0
BITMAP
0180
0300
0200
0000
0FC0
1FE0
3870
6018
E01C
C00C
C00C
C00C
C00C
C00C
E01C
6018
3870
1FE0
0FC0
ENDCHAR
STARTCHAR 212
ENCODING 212
SWIDTH 1152 0
DWIDTH 16 0
BBX 14 19 1 0
BITMAP
0300
0780
0CC0
0000
0FC0
1FE0
3870
6018
E01C
C00C
C00C
C00C
C00C
C00C
E01C
6018
3870
1FE0
0FC0
ENDCHAR
STARTCHAR 213
ENCODING 213
SWIDTH 1152 0
DWIDTH 16 0
BBX 14 19 1 0
BITMAP
0760
0FE0
0DC0
0000
0FC0
1FE0
3870
6018
E01C
C00C
C00C
C00C
C00C
C00C
E01C
6018
3870
1FE0
0FC0
ENDCHAR
STARTCHAR 214
ENCODING 214
SWIDTH 1152 0
DWIDTH 16 0
BBX 14 18 1 0
BITMAP
0CC0
0CC0
0000
0FC0
1FE0
3870
6018
E01C
C00C
C00C
C00C
C00C
C00C
E01C
6018
3870
1FE0
0FC0
ENDCHAR
STARTCHAR 215
ENCODING 215
SWIDTH 1152 0
DWIDTH 16 0
BBX 0 0 0 0
BITMAP
ENDCHAR
STARTCHAR 216
ENCODING 216
SWIDTH 1152 0
DWIDTH 16 0
BBX 14 15 1 0
BITMAP
0FCC
1FF8
3870
6078
E0FC
C18C
C10C
C30C
C20C
C60C
FC1C
7818
3870
7FE0
CFC0
ENDCHAR
STARTCHAR 217
ENCODING 217
SWIDTH 1152 0
DWIDTH 16 0
BBX 12 19 2 0
BITMAP
0C00
0600
0200
0000
C030
C030
C030
C030
C030
C030
C030
C030
C030
C030
C030
E070
70E0
3FC0
1F80
ENDCHAR
STARTCHAR 218
ENCODING 218
SWIDTH 1152 0
DWIDTH 16 0
BBX 12 19 2 0
BITMAP
0300
0600
0400
0000
C030
C030
C030
C030
C030
C030
C030
C030
C030
C030
C030
E070
70E0
3FC0
1F80
ENDCHAR
STARTCHAR 219
ENCODING 219
SWIDTH 1152 0
DWIDTH 16 0
BBX 12 19 2 0
BITMAP
0600
0F00
1980
0000
C030
C030
C030
C030
C030
C030
C030
C030
C030
C030
C030
E070
70E0
3FC0
1F80
ENDCHAR
STARTCHAR 220
ENCODING 220
SWIDTH 1152 0
DWIDTH 16 0
BBX 12 18 2 0
BITMAP
1980
1980
0000
C030
C030
C030
C030
C030
C030
C030
C030
C030
C030
C030
E070
70E0
3FC0
1F80
ENDCHAR
STARTCHAR 221
ENCODING 221
SWIDTH 1152 0
DWIDTH 16 0
BBX 14 19 1 0
BITMAP
0180
0300
0200
0000
E01C
6018
3030
3870
1CE0
0CC0
0780
0780
0300
0300
0300
0300
0300
0300
0300
ENDCHAR
STARTCHAR 222
ENCODING 222
SWIDTH 1152 0
DWIDTH 16 0
BBX 11 15 2 0
BITMAP
C000
C000
C000
FF80
FFC0
C0E0
C060
C060
C060
C0E0
FFC0
FF80
C000
C000
C000
ENDCHAR
STARTCHAR 223
ENCODING 223
SWIDTH 1152 0
DWIDTH 16 0
BBX 11 15 2 0
BITMAP
3E00
7F00
E380
C180
C180
C300
C600
C600
C380
C1C0
C060
C060
DCE0
CFC0
C780
ENDCHAR
STARTCHAR 224
ENCODING 224
SWIDTH 1152 0
DWIDTH 16 0
BBX 10 14 3 0
BITMAP
1800
0C00
0400
0000
3F00
FF80
C180
0380
3F80
FD80
C180
C380
FF80
7CC0
ENDCHAR
STARTCHAR 225
ENCODING 225
SWIDTH 1152 0
DWIDTH 16 0
BBX 10 14 3 0
BITMAP
0C00
1800
1000
0000
3F00
FF80
C180
0380
3F80
FD80
C180
C380
FF80
7CC0
ENDCHAR
STARTCHAR 226
ENCODING 226
SWIDTH 1152 0
DWIDTH 16 0
BBX 10 14 3 0
BITMAP
0C00
1E00
3300
0000
3F00
FF80
C180
0380
3F80
FD80
C180
C380
FF80
7CC0
ENDCHAR
STARTCHAR 227
ENCODING 227
SWIDTH 1152 0
DWIDTH 16 0
BBX 10 14 3 0
BITMAP
3B00
7F00
6E00
0000
3F00
FF80
C180
0380
3F80
FD80
C180
C380
FF80
7CC0
ENDCHAR
STARTCHAR 228
ENCODING 228
SWIDTH 1152 0
DWIDTH 16 0
BBX 10 13 3 0
BITMAP
3300
3300
0000
3F00
FF80
C180
0380
3F80
FD80
C180
C380
FF80
7CC0
ENDCHAR
STARTCHAR 229
ENCODING 229
SWIDTH 1152 0
DWIDTH 16 0
BBX 10 16 3 0
BITMAP
1C00
2200
2200
2200
1C00
0000
3F00
FF80
C180
0380
3F80
FD80
C180
C380
FF80
7CC0
ENDCHAR
STARTCHAR 230
ENCODING 230
SWIDTH 1152 0
DWIDTH 16 0
BBX 15 10 0 0
BITMAP
3E70
7FFC
C38C
0F06
3FFE
73FE
C300
C78C
7EFC
3870
ENDCHAR
STARTCHAR 231
ENCODING 231
SWIDTH 1152 0
DWIDTH 16 0
BBX 10 14 3 -4
BITMAP
3F00
7F80
E0C0
C000
C000
C000
C000
E0C0
7F80
3F00
0800
0C00
0600
3C00
ENDCHAR
STARTCHAR 232
ENCODING 232
SWIDTH 1152 0
DWIDTH 16 0
BBX 10 14 3 0
BITMAP
1800
0C00
0400
0000
3F00
7F80
E1C0
C0C0
FFC0
FFC0
C000
E000
7F80
3F00
ENDCHAR
STARTCHAR 233
ENCODING 233
SWIDTH 1152 0
DWIDTH 16 0
BBX 10 14 3 0
BITMAP
0600
0C00
0800
0000
3F00
7F80
E1C0
C0C0
FFC0
FFC0
C000
E000
7F80
3F00
ENDCHAR
STARTCHAR 234
ENCODING 234
SWIDTH 1152 0
DWIDTH 16 0
BBX 10 14 3 0
BITMAP
0C00
1E00
3300
0000
3F00
7F80
E1C0
C0C0
FFC0
FFC0
C000
E000
7F80
3F00
ENDCHAR
STARTCHAR 235
ENCODING 235
SWIDTH 1152 0
DWIDTH 16 0
BBX 10 13 3 0
BITMAP
3300
3300
0000
3F00
7F80
E1C0
C0C0
FFC0
FFC0
C000
E000
7F80
3F00
ENDCHAR
STARTCHAR 236
ENCODING 236
SWIDTH 1152 0
DWIDTH 16 0
BBX 4 14 6 0
BITMAP
C0
60
20
00
E0
E0
60
60
60
60
60
60
F0
F0
ENDCHAR
STARTCHAR 237
ENCODING 237
SWIDTH 1152 0
DWIDTH 16 0
BBX 4 14 6 0
BITMAP
60
C0
80
00
E0
E0
60
60
60
60
60
60
F0
F0
ENDCHAR
STARTCHAR 238
ENCODING 238
SWIDTH 1152 0
DWIDTH 16 0
BBX 6 14 5 0
BITMAP
30
78
CC
00
70
70
30
30
30
30
30
30
78
78
ENDCHAR
STARTCHAR 239
ENCODING 239
SWIDTH 1152 0
DWIDTH 16 0
BBX 6 13 5 0
BITMAP
CC
CC
00
70
70
30
30
30
30
30
30
78
78
ENDCHAR
STARTCHAR 240
ENCODING 240
SWIDTH 1152 0
DWIDTH 16 0
BBX 10 15 3 0
BITMAP
3000
1B00
1E00
3600
0300
3F80
7F80
E1C0
C0C0
C0C0
C0C0
C0C0
E1C0
7F80
3F00
ENDCHAR
STARTCHAR 241
ENCODING 241
SWIDTH 1152 0
DWIDTH 16 0
BBX 10 14 3 0
BITMAP
3980
7F80
7700
0000
DF00
FF80
E1C0
C0C0
C0C0
C0C0
C0C0
C0C0
C0C0
C0C0
ENDCHAR
STARTCHAR 242
ENCODING 242
SWIDTH 1152 0
DWIDTH 16 0
BBX 10 14 3 0
BITMAP
1800
0C00
0400
0000
3F00
7F80
E1C0
C0C0
C0C0
C0C0
C0C0
E1C0
7F80
3F00
ENDCHAR
STARTCHAR 243
ENCODING 243
SWIDTH 1152 0
DWIDTH 16 0
BBX 10 14 3 0
BITMAP
0600
0C00
0800
0000
3F00
7F80
E1C0
C0C0
C0C0
C0C0
C0C0
E1C0
7F80
3F00
ENDCHAR
STARTCHAR 244
ENCODING 244
SWIDTH 1152 0
DWIDTH 16 0
BBX 10 14 3 0
BITMAP
0C00
1E00
3300
0000
3F00
7F80
E1C0
C0C0
C0C0
C0C0
C0C0
E1C0
7F80
3F00
ENDCHAR
STARTCHAR 245
ENCODING 245
SWIDTH 1152 0
DWIDTH 16 0
BBX 10 14 3 0
BITMAP
3B00
7F00
6E00
0000
3F00
7F80
E1C0
C0C0
C0C0
C0C0
C0C0
E1C0
7F80
3F00
ENDCHAR
STARTCHAR 246
ENCODING 246
SWIDTH 1152 0
DWIDTH 16 0
BBX 10 13 3 0
BITMAP
3300
3300
0000
3F00
7F80
E1C0
C0C0
C0C0
C0C0
C0C0
E1C0
7F80
3F00
ENDCHAR
STARTCHAR 247
ENCODING 247
SWIDTH 1152 0
DWIDTH 16 0
BBX 0 0 0 0
BITMAP
ENDCHAR
STARTCHAR 248
ENCODING 248
SWIDTH 1152 0
DWIDTH 16 0
BBX 10 10 3 0
BITMAP
3F40
7F80
E1C0
C2C0
C4C0
C8C0
D0C0
E1C0
7F80
BF00
ENDCHAR
STARTCHAR 249
ENCODING 249
SWIDTH 1152 0
DWIDTH 16 0
BBX 10 14 3 0
BITMAP
1800
0C00
0400
0000
C0C0
C0C0
C0C0
C0C0
C0C0
C0C0
C0C0
E1C0
7FC0
3EC0
ENDCHAR
STARTCHAR 250
ENCODING 250
SWIDTH 1152 0
DWIDTH 16 0
BBX 10 14 3 0
BITMAP
0600
0C00
0800
0000
C0C0
C0C0
C0C0
C0C0
C0C0
C0C0
C0C0
E1C0
7FC0
3EC0
ENDCHAR
STARTCHAR 251
ENCODING 251
SWIDTH 1152 0
DWIDTH 16 0
BBX 10 14 3 0
BITMAP
0C00
1E00
3300
0000
C0C0
C0C0
C0C0
C0C0
C0C0
C0C0
C0C0
E1C0
7FC0
3EC0
ENDCHAR
STARTCHAR 252
ENCODING 252
SWIDTH 1152 0
DWIDTH 16 0
BBX 10 13 3 0
BITMAP
3300
3300
0000
C0C0
C0C0
C0C0
C0C0
C0C0
C0C0
C0C0
E1C0
7FC0
3EC0
ENDCHAR
STARTCHAR 253
ENCODING 253
SWIDTH 1152 0
DWIDTH 16 0
BBX 10 18 3 -4
BITMAP
0600
0C00
0800
0000
C0C0
C0C0
C0C0
C0C0
C0C0
C0C0
C0C0
E1C0
7FC0
3EC0
00C0
C1C0
FF80
7F00
ENDCHAR
STARTCHAR 254
ENCODING 254
SWIDTH 1152 0
DWIDTH 16 0
BBX 10 16 3 -4
BITMAP
C000
C000
C000
C000
FF00
FF80
C0C0
C0C0
C0C0
C0C0
FF80
FF00
C000
C000
C000
C000
ENDCHAR
STARTCHAR 255
ENCODING 255
SWIDTH 1152 0
DWIDTH 16 0
BBX 10 17 3 -4
BITMAP
3300
3300
0000
C0C0
C0C0
C0C0
C0C0
C0C0
C0C0
C0C0
E1C0
7FC0
3EC0
00C0
C1C0
FF80
7F00
ENDCHAR
ENDFONT
